<svg width="59" height="58" viewBox="0 0 59 58" fill="none" xmlns="http://www.w3.org/2000/svg">
<rect x="0.5" width="58" height="58" rx="12" fill="#2F75FD"/>
<path d="M25.6108 26.9308L24.0833 28.4583L29.5 33.875L34.9167 28.4583L33.3892 26.9308L30.5833 29.7258L30.5833 19.25L28.4167 19.25L28.4167 29.7258L25.6108 26.9308ZM39.25 36.5833L39.25 21.4167C39.25 20.842 39.0217 20.2909 38.6154 19.8846C38.2091 19.4783 37.658 19.25 37.0833 19.25L32.75 19.25L32.75 21.4167L37.0833 21.4167L37.0833 36.5833L21.9167 36.5833L21.9167 21.4167L26.25 21.4167L26.25 19.25L21.9167 19.25C21.342 19.25 20.7909 19.4783 20.3846 19.8846C19.9783 20.2909 19.75 20.842 19.75 21.4167L19.75 36.5833C19.75 37.775 20.725 38.75 21.9167 38.75L37.0833 38.75C38.275 38.75 39.25 37.775 39.25 36.5833Z" fill="white"/>
</svg>
