<svg width="59" height="58" viewBox="0 0 59 58" fill="none" xmlns="http://www.w3.org/2000/svg">
<rect x="0.5" width="58" height="58" rx="12" fill="#2F75FD"/>
<path d="M19.75 19.25H28.4167V27.9167H19.75V19.25ZM21.4833 20.9833V26.1833H26.6833V20.9833H21.4833Z" fill="white"/>
<path fill-rule="evenodd" clip-rule="evenodd" d="M23 22.5H25.1667V24.6667H23V22.5Z" fill="white"/>
<path d="M30.5833 19.25H39.2499V27.9167H30.5833V19.25ZM32.3166 20.9833V26.1833H37.5166V20.9833H32.3166Z" fill="white"/>
<path fill-rule="evenodd" clip-rule="evenodd" d="M33.8333 22.5H35.9999V24.6667H33.8333V22.5Z" fill="white"/>
<path d="M19.75 30.0833H28.4167V38.75H19.75V30.0833ZM21.4833 31.8167V37.0167H26.6833V31.8167H21.4833Z" fill="white"/>
<path fill-rule="evenodd" clip-rule="evenodd" d="M23 33.3333H25.1667V35.5H23V33.3333Z" fill="white"/>
<path d="M39.2499 35.2833H35.7833V38.75H30.5833V30.0833H31.4499H30.5833V35.2833H32.3166V37.0167H34.0499V31.8167H32.3166V30.0833H31.4499H34.0499V31.8167H35.7833V33.55H37.5166V30.0833H39.2499V35.2833ZM39.2499 37.0167V38.75H37.5166V37.0167H39.2499Z" fill="white"/>
</svg>
